<svg xmlns="http://www.w3.org/2000/svg" viewBox="0 0 500 310" width="100%" height="auto">
  <defs>
    <style>
      @import url('https://fonts.googleapis.com/css2?family=JetBrains+Mono:wght@400;600;700&amp;display=swap');
      text { font-family: 'JetBrains Mono', 'Cascadia Code', 'Fira Code', monospace; }
    </style>
    <linearGradient id="panelGlow" x1="0%" y1="0%" x2="0%" y2="100%">
      <stop offset="0%" style="stop-color:#22C55E;stop-opacity:0.08"/>
      <stop offset="100%" style="stop-color:#22C55E;stop-opacity:0.02"/>
    </linearGradient>
    <linearGradient id="barGrad1" x1="0%" y1="0%" x2="100%" y2="0%">
      <stop offset="0%" style="stop-color:#22C55E"/>
      <stop offset="100%" style="stop-color:#4ADE80"/>
    </linearGradient>
    <linearGradient id="barGrad2" x1="0%" y1="0%" x2="100%" y2="0%">
      <stop offset="0%" style="stop-color:#3B82F6"/>
      <stop offset="100%" style="stop-color:#60A5FA"/>
    </linearGradient>
    <linearGradient id="barGrad3" x1="0%" y1="0%" x2="100%" y2="0%">
      <stop offset="0%" style="stop-color:#F59E0B"/>
      <stop offset="100%" style="stop-color:#FBBF24"/>
    </linearGradient>
    <linearGradient id="barGrad4" x1="0%" y1="0%" x2="100%" y2="0%">
      <stop offset="0%" style="stop-color:#EC4899"/>
      <stop offset="100%" style="stop-color:#F472B6"/>
    </linearGradient>
    <linearGradient id="barGrad5" x1="0%" y1="0%" x2="100%" y2="0%">
      <stop offset="0%" style="stop-color:#8B5CF6"/>
      <stop offset="100%" style="stop-color:#A78BFA"/>
    </linearGradient>
  </defs>
  <!-- Panel background -->
  <rect x="0.5" y="0.5" width="499" height="309" rx="6" fill="#0D1117" stroke="#1E293B" stroke-width="1"/>
  <rect x="0" y="0" width="500" height="309" rx="6" fill="url(#panelGlow)"/>

  <!-- Title bar -->
  <rect x="0" y="0" width="500" height="28" rx="6" fill="#161B22"/>
  <rect x="0" y="14" width="500" height="14" fill="#161B22"/>
  <text x="250" y="19" text-anchor="middle" fill="#8B949E" font-size="10" font-family="monospace">skills — matrix [ai-engineer/backend]</text>

  <!-- Category: AI & ML -->
  <text x="24" y="52" fill="#22C55E" font-size="11" font-weight="700" font-family="monospace">[ AI &amp; ML ]</text>
  <text x="350" y="52" fill="#4ADE80" font-size="9" font-family="monospace" text-anchor="end">██████████░░  92%</text>
  <rect x="24" y="58" width="450" height="4" rx="2" fill="#1E293B"/>
  <rect x="24" y="58" width="414" height="4" rx="2" fill="url(#barGrad1)"/>

  <text x="24" y="76" fill="#8B949E" font-size="9" font-family="monospace">PyTorch · TensorFlow · OpenCV · LLMs · RAG</text>

  <!-- Category: Backend -->
  <text x="24" y="100" fill="#22C55E" font-size="11" font-weight="700" font-family="monospace">[ Backend ]</text>
  <text x="350" y="100" fill="#60A5FA" font-size="9" font-family="monospace" text-anchor="end">██████████░░  88%</text>
  <rect x="24" y="106" width="450" height="4" rx="2" fill="#1E293B"/>
  <rect x="24" y="106" width="396" height="4" rx="2" fill="url(#barGrad2)"/>

  <text x="24" y="124" fill="#8B949E" font-size="9" font-family="monospace">FastAPI · Flask · Node.js · REST · gRPC</text>

  <!-- Category: Cloud & Infra -->
  <text x="24" y="148" fill="#22C55E" font-size="11" font-weight="700" font-family="monospace">[ Cloud &amp; Infra ]</text>
  <text x="350" y="148" fill="#FBBF24" font-size="9" font-family="monospace" text-anchor="end">████████░░░░  75%</text>
  <rect x="24" y="154" width="450" height="4" rx="2" fill="#1E293B"/>
  <rect x="24" y="154" width="337" height="4" rx="2" fill="url(#barGrad3)"/>

  <text x="24" y="172" fill="#8B949E" font-size="9" font-family="monospace">Docker · Kubernetes · CI/CD · Cloud Deploy</text>

  <!-- Category: Frontend -->
  <text x="24" y="196" fill="#22C55E" font-size="11" font-weight="700" font-family="monospace">[ Frontend ]</text>
  <text x="350" y="196" fill="#F472B6" font-size="9" font-family="monospace" text-anchor="end">████████░░░░  72%</text>
  <rect x="24" y="202" width="450" height="4" rx="2" fill="#1E293B"/>
  <rect x="24" y="202" width="324" height="4" rx="2" fill="url(#barGrad4)"/>

  <text x="24" y="220" fill="#8B949E" font-size="9" font-family="monospace">React · Next.js · TypeScript · Tailwind</text>

  <!-- Category: Systems & Languages -->
  <text x="24" y="244" fill="#22C55E" font-size="11" font-weight="700" font-family="monospace">[ Systems &amp; Languages ]</text>
  <text x="350" y="244" fill="#A78BFA" font-size="9" font-family="monospace" text-anchor="end">██████████░░  84%</text>
  <rect x="24" y="250" width="450" height="4" rx="2" fill="#1E293B"/>
  <rect x="24" y="250" width="378" height="4" rx="2" fill="url(#barGrad5)"/>

  <text x="24" y="268" fill="#8B949E" font-size="9" font-family="monospace">Python · C++ · C# · TypeScript · Java</text>

  <!-- Bottom terminal line -->
  <text x="24" y="294" fill="#16A34A" font-size="9" font-family="monospace">$</text>
  <text x="34" y="294" fill="#8B949E" font-size="9" font-family="monospace">Skills updated: </text>
  <text x="200" y="294" fill="#22C55E" font-size="9" font-family="monospace">2026-07-08T09:30:00Z</text>
</svg>
