<svg xmlns="http://www.w3.org/2000/svg" viewBox="0 0 620 280" width="100%" height="auto">
  <defs>
    <style>
      @import url('https://fonts.googleapis.com/css2?family=JetBrains+Mono:wght@400;600;700&amp;display=swap');
      text { font-family: 'JetBrains Mono', 'Cascadia Code', 'Fira Code', monospace; }
    </style>
  </defs>
  <!-- Panel bg -->
  <rect x="0.5" y="0.5" width="619" height="279" rx="6" fill="#0D1117" stroke="#1E293B" stroke-width="1"/>

  <!-- Title -->
  <rect x="0" y="0" width="620" height="28" rx="6" fill="#161B22"/>
  <rect x="0" y="14" width="620" height="14" fill="#161B22"/>
  <text x="310" y="19" text-anchor="middle" fill="#8B949E" font-size="10" font-family="monospace">tech — stack [platform-engineering]</text>

  <!-- Column headers -->
  <text x="24" y="50" fill="#22C55E" font-size="9" font-weight="700" font-family="monospace">CATEGORY</text>
  <text x="160" y="50" fill="#22C55E" font-size="9" font-weight="700" font-family="monospace">TECHNOLOGY</text>
  <text x="360" y="50" fill="#22C55E" font-size="9" font-weight="700" font-family="monospace">PROFICIENCY</text>
  <text x="500" y="50" fill="#22C55E" font-size="9" font-weight="700" font-family="monospace">STATUS</text>
  <line x1="24" y1="56" x2="596" y2="56" stroke="#1E293B" stroke-width="1"/>

  <!-- Row 1: Languages -->
  <text x="24" y="74" fill="#8B949E" font-size="9" font-family="monospace">Languages</text>
  <text x="160" y="74" fill="#E2E8F0" font-size="9" font-family="monospace">Python · TypeScript · C++ · C# · Java</text>
  <rect x="360" y="70" width="72" height="4" rx="2" fill="#1E293B"/>
  <rect x="360" y="70" width="65" height="4" rx="2" fill="#22C55E"/>
  <text x="500" y="74" fill="#22C55E" font-size="9" font-family="monospace">● active</text>

  <line x1="24" y1="84" x2="596" y2="84" stroke="#1E293B" stroke-width="0.5" stroke-dasharray="2,3"/>

  <!-- Row 2: AI/ML -->
  <text x="24" y="98" fill="#8B949E" font-size="9" font-family="monospace">AI / ML</text>
  <text x="160" y="98" fill="#E2E8F0" font-size="9" font-family="monospace">PyTorch · TensorFlow · OpenCV · YOLO</text>
  <rect x="360" y="94" width="72" height="4" rx="2" fill="#1E293B"/>
  <rect x="360" y="94" width="62" height="4" rx="2" fill="#22C55E"/>
  <text x="500" y="98" fill="#22C55E" font-size="9" font-family="monospace">● active</text>

  <line x1="24" y1="108" x2="596" y2="108" stroke="#1E293B" stroke-width="0.5" stroke-dasharray="2,3"/>

  <!-- Row 3: Backend -->
  <text x="24" y="122" fill="#8B949E" font-size="9" font-family="monospace">Backend</text>
  <text x="160" y="122" fill="#E2E8F0" font-size="9" font-family="monospace">FastAPI · Flask · Node.js · REST · gRPC</text>
  <rect x="360" y="118" width="72" height="4" rx="2" fill="#1E293B"/>
  <rect x="360" y="118" width="63" height="4" rx="2" fill="#22C55E"/>
  <text x="500" y="122" fill="#22C55E" font-size="9" font-family="monospace">● active</text>

  <line x1="24" y1="132" x2="596" y2="132" stroke="#1E293B" stroke-width="0.5" stroke-dasharray="2,3"/>

  <!-- Row 4: Frontend -->
  <text x="24" y="146" fill="#8B949E" font-size="9" font-family="monospace">Frontend</text>
  <text x="160" y="146" fill="#E2E8F0" font-size="9" font-family="monospace">React · Next.js · TypeScript · Tailwind</text>
  <rect x="360" y="142" width="72" height="4" rx="2" fill="#1E293B"/>
  <rect x="360" y="142" width="50" height="4" rx="2" fill="#3B82F6"/>
  <text x="500" y="146" fill="#60A5FA" font-size="9" font-family="monospace">● building</text>

  <line x1="24" y1="156" x2="596" y2="156" stroke="#1E293B" stroke-width="0.5" stroke-dasharray="2,3"/>

  <!-- Row 5: Databases -->
  <text x="24" y="170" fill="#8B949E" font-size="9" font-family="monospace">Databases</text>
  <text x="160" y="170" fill="#E2E8F0" font-size="9" font-family="monospace">PostgreSQL · MongoDB · Redis</text>
  <rect x="360" y="166" width="72" height="4" rx="2" fill="#1E293B"/>
  <rect x="360" y="166" width="60" height="4" rx="2" fill="#22C55E"/>
  <text x="500" y="170" fill="#22C55E" font-size="9" font-family="monospace">● active</text>

  <line x1="24" y1="180" x2="596" y2="180" stroke="#1E293B" stroke-width="0.5" stroke-dasharray="2,3"/>

  <!-- Row 6: Cloud/Infra -->
  <text x="24" y="194" fill="#8B949E" font-size="9" font-family="monospace">Infra / Ops</text>
  <text x="160" y="194" fill="#E2E8F0" font-size="9" font-family="monospace">Docker · Kubernetes · CI/CD · Linux</text>
  <rect x="360" y="190" width="72" height="4" rx="2" fill="#1E293B"/>
  <rect x="360" y="190" width="54" height="4" rx="2" fill="#F59E0B"/>
  <text x="500" y="194" fill="#FBBF24" font-size="9" font-family="monospace">● learning</text>

  <line x1="24" y1="204" x2="596" y2="204" stroke="#1E293B" stroke-width="0.5" stroke-dasharray="2,3"/>

  <!-- Row 7: Tools -->
  <text x="24" y="218" fill="#8B949E" font-size="9" font-family="monospace">Tools</text>
  <text x="160" y="218" fill="#E2E8F0" font-size="9" font-family="monospace">Git · Postman · Unity · VS Code</text>
  <rect x="360" y="214" width="72" height="4" rx="2" fill="#1E293B"/>
  <rect x="360" y="214" width="65" height="4" rx="2" fill="#22C55E"/>
  <text x="500" y="218" fill="#22C55E" font-size="9" font-family="monospace">● active</text>

  <line x1="24" y1="228" x2="596" y2="228" stroke="#1E293B" stroke-width="0.5" stroke-dasharray="2,3"/>

  <!-- Footer -->
  <text x="24" y="250" fill="#8B949E" font-size="9" font-family="monospace">LEGEND: <tspan fill="#22C55E">● active</tspan> · <tspan fill="#60A5FA">● building</tspan> · <tspan fill="#FBBF24">● learning</tspan> · <tspan fill="#8B949E">● planned</tspan></text>

  <!-- Bottom prompt -->
  <text x="24" y="268" fill="#16A34A" font-size="9" font-family="monospace">$</text>
  <text x="34" y="268" fill="#8B949E" font-size="9" font-family="monospace">cat tech-stack.json | jq '.proficiency'</text>
</svg>
